<svg id="Capa_1" data-name="Capa 1" xmlns="http://www.w3.org/2000/svg" viewBox="0 0 189.5 62.23"><defs><style>.cls-1{fill:#12afaf;}.cls-2{font-size:15px;fill:#fff;font-family:SegoePrint, Segoe Print;}.cls-3{letter-spacing:-0.06em;}</style></defs><title>logo</title><path class="cls-1" d="M59.22,58.34C45.48,52.46,31.4,46.22,16,49.53c-3.86,1-7.11,3.56-10.15,6.57C18.54,58.34,27.54,70.8,33.28,83.93,38.54,70.78,50.37,61.43,62.9,60l.11-.2A31.25,31.25,0,0,1,59.22,58.34Z" transform="translate(-4.25 -21.69)"/><path class="cls-1" d="M50.58,21.7h-.21c-6.16,2.12-11.45,6.59-15.88,12.36l0,0,0,0-.43.56.43-.56A38.13,38.13,0,0,0,19,22.94L4.25,49.53l1.13,2.25c3.17-3.2,6.55-6,10.6-7,15.42-3.3,29.49,2.94,43.24,8.81A31.26,31.26,0,0,0,63,55L65.25,51Z" transform="translate(-4.25 -21.69)"/><text class="cls-2" transform="translate(65.97 33.08)">Mapa<tspan class="cls-3" x="41.5" y="0">T</tspan><tspan x="50.7" y="0">ecnología</tspan></text></svg>